#!OML:ASF E:/inclinewalkrobotboard/Project1/Captureday1/Session1/subject1.ASF
:FULLY-SPECIFIED
:DEGREES
63
root 0 0 0 1.1963453394462369 -3.641521496376944 1.8050733893594781
lowerback 11.908843092182517 0.8735690750562486 -0.044736125874940885
upperback -4.276851192381045 1.1064685758619393 -0.5601902244176067
thorax -11.345865154430381 0.5064125965973143 -0.8179049446225725
lowerneck -6.124979238449924 1.526496488797184 4.510065138920911
upperneck 18.26528137624131 2.9902938043475 -8.173196104140382
head 6.722229146175829 1.092236597630025 -3.1561983913613156
rclavicle 1.1595267688545202E-15 -1.2061026986792241E-15
rhumerus 19.297199519785735 13.9108235384939 -48.42624417313327
rradius 71.6740635752979
rwrist 26.698045161764913
rhand -34.784266386434005 -56.47874136157766
rfingers 7.125020000000027
rthumb -7.9212186646758465 -86.40331742173682
lclavicle 1.023593975995055E-15 -1.8545852663245954E-15
lhumerus 20.71876457175083 -12.22849473036584 44.94297500771701
lradius 69.71950194954063
lwrist -22.656586711110222
lhand -44.542759534864096 -69.58533193848832
lfingers 7.125020000000021
lthumb -17.368310533030453 -40.30692858585349
rfemur -24.64266539465583 -2.0949424284283333 17.180296026469733
rtibia 53.82246765951856
rfoot -29.080598197853313 -17.033589608891962
rtoes -18.311992922471724
lfemur -26.285891864407354 2.4969283974032983 -18.019829426431784
ltibia 54.197158717748565
lfoot -31.072638469024557 -3.470738959002159
ltoes -20.011965085280202
64
root 0 0 0 1.1943023697407398 -3.6429487875810667 1.805266582938055
lowerback 11.908868797991376 0.8733223308007665 -0.04437728986252981
upperback -4.275697303186532 1.1062580454559958 -0.559860169187217
thorax -11.344581679923774 0.5062927385683367 -0.817668264005616
lowerneck -6.118045164060599 1.5253437983880493 4.511363798062909
upperneck 18.26130514149556 2.988963371840317 -8.176767983493967
head 6.719789965826945 1.0916329722611362 -3.157687518821263
rclavicle 1.1659283463360958E-15 -1.2063846240895648E-15
rhumerus 19.299455040863158 13.913163350891441 -48.4253640514339
rradius 71.67537117852288
rwrist 26.69740340328351
rhand -34.78113236962983 -56.47464753660759
rfingers 7.125020000000027
rthumb -7.9181736648029535 -86.3993352190736
lclavicle 1.0289720117329579E-15 -1.8556047967792347E-15
lhumerus 20.71921130568851 -12.230051571914338 44.94149120618762
lradius 69.72021047508709
lwrist -22.656764844190974
lhand -44.54169226467333 -69.57889679307738
lfingers 7.125020000000021
lthumb -17.367276920100576 -40.30055076269281
rfemur -24.642662173389905 -2.0949681522586463 17.180336695932834
rtibia 53.822757843212514
rfoot -29.080842753990332 -17.033465060845625
rtoes -18.31215462274471
lfemur -26.285124317446044 2.4973523175186108 -18.01979104022114
ltibia 54.19728555308616
lfoot -31.072471978004938 -3.4703247393748495
ltoes -20.01468455201763
65
root 0 0 0 1.1919469796787694 -3.644591018998006 1.805490416342609
lowerback 11.908902653007871 0.8730375931312824 -0.04396314732973722
upperback -4.274361497178527 1.1060152900197167 -0.5594789270767864
thorax -11.343098242642274 0.5061545196349907 -0.8173946546843833
lowerneck -6.110042957850499 1.5240092975803865 4.512862166223998
upperneck 18.256710160736482 2.9874218049194554 -8.180892684746981
head 6.716973165734277 1.0909335206420128 -3.159407513806234
rclavicle 1.171308245769795E-15 -1.206448872368085E-15
rhumerus 19.30179431451068 13.915568158393821 -48.424344559000296
rradius 71.67669910790818
rwrist 26.69678046186664
rhand -34.777761410206125 -56.470246069238826
rfingers 7.125020000000027
rthumb -7.914901514550769 -86.39506935688377
lclavicle 1.0331601445908585E-15 -1.856257524372396E-15
lhumerus 20.719745262845663 -12.231738867651908 44.93988089304192
lradius 69.72099421326166
lwrist -22.656971101453458
lhand -44.54058499555505 -69.57205194955898
lfingers 7.125020000000021
lthumb -17.36620406015022 -40.29373817423603
rfemur -24.642720401493097 -2.0950177845331255 17.18036907869647
rtibia 53.823070999161885
rfoot -29.081143822270988 -17.033368581025318
rtoes -18.312290582858527
lfemur -26.284266263461262 2.497820842213076 -18.019749634372474
ltibia 54.19737918350833
lfoot -31.072304746374233 -3.4698295169719255
ltoes -20.01773456168032
66
root 0 0 0 1.190222775383977 -3.6457797314054736 1.8056433996264358
lowerback 11.908916643612045 0.8728268113489582 -0.043640169045230576
upperback -4.2733649970770475 1.105838481343823 -0.5591953472907879
thorax -11.341983989915382 0.5060525936073402 -0.8171993409995024
lowerneck -6.104065331258445 1.5229816536884673 4.513966714320917
upperneck 18.253216118639923 2.9862231818469143 -8.183943266958016
head 6.714848563145914 1.0903911878059436 -3.1606853868109344
rclavicle 1.1836864787625152E-15 -1.214042930239012E-15
rhumerus 19.30363605216808 13.918009808293142 -48.425733962837775
rradius 71.67815239750898
rwrist 26.694666276851255
rhand -34.77734518780183 -56.46883854248048
rfingers 7.125020000000027
rthumb -7.914435769530465 -86.39377986623396
lclavicle 1.0626852879952571E-15 -1.86899473485502E-15
lhumerus 20.71934479550798 -12.232635681172964 44.93809474138402
lradius 69.72121428300383
lwrist -22.65714169004329
lhand -44.53902318429323 -69.5660219963487
lfingers 7.125020000000021
lthumb -17.364745098094836 -40.28827431147582
rfemur -24.64241768786751 -2.095364771877904 17.18107260085562
rtibia 53.82445961887975
rfoot -29.082681546939313 -17.034326705978028
rtoes -18.312857135448162
lfemur -26.285674358013754 2.4975997932533938 -18.020041279635603
ltibia 54.1984778651574
lfoot -31.073406262475903 -3.471020921073992
ltoes -20.016163858845555
